<?xml version="1.0" encoding="UTF-8" standalone="no"?>
<!-- Created with Inkscape (http://www.inkscape.org/) -->

<svg
   xmlns:dc="http://purl.org/dc/elements/1.1/"
   xmlns:cc="http://creativecommons.org/ns#"
   xmlns:rdf="http://www.w3.org/1999/02/22-rdf-syntax-ns#"
   xmlns:svg="http://www.w3.org/2000/svg"
   xmlns="http://www.w3.org/2000/svg"
   xmlns:sodipodi="http://sodipodi.sourceforge.net/DTD/sodipodi-0.dtd"
   xmlns:inkscape="http://www.inkscape.org/namespaces/inkscape"
   width="1052.3622"
   height="744.09448"
   id="svg2"
   version="1.1"
   inkscape:version="0.47pre4 r22446"
   sodipodi:docname="yc20-ui.svg"
   style="display:inline">
  <defs
     id="defs4">
    <inkscape:perspective
       sodipodi:type="inkscape:persp3d"
       inkscape:vp_x="0 : 526.18109 : 1"
       inkscape:vp_y="0 : 1000 : 0"
       inkscape:vp_z="744.09448 : 526.18109 : 1"
       inkscape:persp3d-origin="372.04724 : 350.78739 : 1"
       id="perspective10" />
    <inkscape:perspective
       id="perspective3743"
       inkscape:persp3d-origin="0.5 : 0.33333333 : 1"
       inkscape:vp_z="1 : 0.5 : 1"
       inkscape:vp_y="0 : 1000 : 0"
       inkscape:vp_x="0 : 0.5 : 1"
       sodipodi:type="inkscape:persp3d" />
    <inkscape:perspective
       id="perspective3770"
       inkscape:persp3d-origin="0.5 : 0.33333333 : 1"
       inkscape:vp_z="1 : 0.5 : 1"
       inkscape:vp_y="0 : 1000 : 0"
       inkscape:vp_x="0 : 0.5 : 1"
       sodipodi:type="inkscape:persp3d" />
    <inkscape:perspective
       id="perspective3824"
       inkscape:persp3d-origin="0.5 : 0.33333333 : 1"
       inkscape:vp_z="1 : 0.5 : 1"
       inkscape:vp_y="0 : 1000 : 0"
       inkscape:vp_x="0 : 0.5 : 1"
       sodipodi:type="inkscape:persp3d" />
    <inkscape:perspective
       id="perspective3866"
       inkscape:persp3d-origin="0.5 : 0.33333333 : 1"
       inkscape:vp_z="1 : 0.5 : 1"
       inkscape:vp_y="0 : 1000 : 0"
       inkscape:vp_x="0 : 0.5 : 1"
       sodipodi:type="inkscape:persp3d" />
    <inkscape:perspective
       id="perspective3894"
       inkscape:persp3d-origin="0.5 : 0.33333333 : 1"
       inkscape:vp_z="1 : 0.5 : 1"
       inkscape:vp_y="0 : 1000 : 0"
       inkscape:vp_x="0 : 0.5 : 1"
       sodipodi:type="inkscape:persp3d" />
    <inkscape:perspective
       id="perspective3654"
       inkscape:persp3d-origin="0.5 : 0.33333333 : 1"
       inkscape:vp_z="1 : 0.5 : 1"
       inkscape:vp_y="0 : 1000 : 0"
       inkscape:vp_x="0 : 0.5 : 1"
       sodipodi:type="inkscape:persp3d" />
    <inkscape:perspective
       id="perspective3676"
       inkscape:persp3d-origin="0.5 : 0.33333333 : 1"
       inkscape:vp_z="1 : 0.5 : 1"
       inkscape:vp_y="0 : 1000 : 0"
       inkscape:vp_x="0 : 0.5 : 1"
       sodipodi:type="inkscape:persp3d" />
    <inkscape:perspective
       id="perspective3698"
       inkscape:persp3d-origin="0.5 : 0.33333333 : 1"
       inkscape:vp_z="1 : 0.5 : 1"
       inkscape:vp_y="0 : 1000 : 0"
       inkscape:vp_x="0 : 0.5 : 1"
       sodipodi:type="inkscape:persp3d" />
    <inkscape:perspective
       id="perspective3726"
       inkscape:persp3d-origin="0.5 : 0.33333333 : 1"
       inkscape:vp_z="1 : 0.5 : 1"
       inkscape:vp_y="0 : 1000 : 0"
       inkscape:vp_x="0 : 0.5 : 1"
       sodipodi:type="inkscape:persp3d" />
    <inkscape:perspective
       id="perspective3795"
       inkscape:persp3d-origin="0.5 : 0.33333333 : 1"
       inkscape:vp_z="1 : 0.5 : 1"
       inkscape:vp_y="0 : 1000 : 0"
       inkscape:vp_x="0 : 0.5 : 1"
       sodipodi:type="inkscape:persp3d" />
    <inkscape:perspective
       id="perspective3865"
       inkscape:persp3d-origin="0.5 : 0.33333333 : 1"
       inkscape:vp_z="1 : 0.5 : 1"
       inkscape:vp_y="0 : 1000 : 0"
       inkscape:vp_x="0 : 0.5 : 1"
       sodipodi:type="inkscape:persp3d" />
    <inkscape:perspective
       id="perspective3934"
       inkscape:persp3d-origin="0.5 : 0.33333333 : 1"
       inkscape:vp_z="1 : 0.5 : 1"
       inkscape:vp_y="0 : 1000 : 0"
       inkscape:vp_x="0 : 0.5 : 1"
       sodipodi:type="inkscape:persp3d" />
    <inkscape:perspective
       id="perspective4044"
       inkscape:persp3d-origin="0.5 : 0.33333333 : 1"
       inkscape:vp_z="1 : 0.5 : 1"
       inkscape:vp_y="0 : 1000 : 0"
       inkscape:vp_x="0 : 0.5 : 1"
       sodipodi:type="inkscape:persp3d" />
    <inkscape:perspective
       id="perspective4091"
       inkscape:persp3d-origin="0.5 : 0.33333333 : 1"
       inkscape:vp_z="1 : 0.5 : 1"
       inkscape:vp_y="0 : 1000 : 0"
       inkscape:vp_x="0 : 0.5 : 1"
       sodipodi:type="inkscape:persp3d" />
    <inkscape:perspective
       id="perspective4143"
       inkscape:persp3d-origin="0.5 : 0.33333333 : 1"
       inkscape:vp_z="1 : 0.5 : 1"
       inkscape:vp_y="0 : 1000 : 0"
       inkscape:vp_x="0 : 0.5 : 1"
       sodipodi:type="inkscape:persp3d" />
    <inkscape:perspective
       id="perspective4165"
       inkscape:persp3d-origin="0.5 : 0.33333333 : 1"
       inkscape:vp_z="1 : 0.5 : 1"
       inkscape:vp_y="0 : 1000 : 0"
       inkscape:vp_x="0 : 0.5 : 1"
       sodipodi:type="inkscape:persp3d" />
    <inkscape:perspective
       id="perspective4187"
       inkscape:persp3d-origin="0.5 : 0.33333333 : 1"
       inkscape:vp_z="1 : 0.5 : 1"
       inkscape:vp_y="0 : 1000 : 0"
       inkscape:vp_x="0 : 0.5 : 1"
       sodipodi:type="inkscape:persp3d" />
    <inkscape:perspective
       id="perspective4209"
       inkscape:persp3d-origin="0.5 : 0.33333333 : 1"
       inkscape:vp_z="1 : 0.5 : 1"
       inkscape:vp_y="0 : 1000 : 0"
       inkscape:vp_x="0 : 0.5 : 1"
       sodipodi:type="inkscape:persp3d" />
    <inkscape:perspective
       id="perspective4233"
       inkscape:persp3d-origin="0.5 : 0.33333333 : 1"
       inkscape:vp_z="1 : 0.5 : 1"
       inkscape:vp_y="0 : 1000 : 0"
       inkscape:vp_x="0 : 0.5 : 1"
       sodipodi:type="inkscape:persp3d" />
    <inkscape:perspective
       id="perspective4255"
       inkscape:persp3d-origin="0.5 : 0.33333333 : 1"
       inkscape:vp_z="1 : 0.5 : 1"
       inkscape:vp_y="0 : 1000 : 0"
       inkscape:vp_x="0 : 0.5 : 1"
       sodipodi:type="inkscape:persp3d" />
    <inkscape:perspective
       id="perspective4277"
       inkscape:persp3d-origin="0.5 : 0.33333333 : 1"
       inkscape:vp_z="1 : 0.5 : 1"
       inkscape:vp_y="0 : 1000 : 0"
       inkscape:vp_x="0 : 0.5 : 1"
       sodipodi:type="inkscape:persp3d" />
    <inkscape:perspective
       id="perspective4299"
       inkscape:persp3d-origin="0.5 : 0.33333333 : 1"
       inkscape:vp_z="1 : 0.5 : 1"
       inkscape:vp_y="0 : 1000 : 0"
       inkscape:vp_x="0 : 0.5 : 1"
       sodipodi:type="inkscape:persp3d" />
    <inkscape:perspective
       id="perspective4321"
       inkscape:persp3d-origin="0.5 : 0.33333333 : 1"
       inkscape:vp_z="1 : 0.5 : 1"
       inkscape:vp_y="0 : 1000 : 0"
       inkscape:vp_x="0 : 0.5 : 1"
       sodipodi:type="inkscape:persp3d" />
    <inkscape:perspective
       id="perspective4343"
       inkscape:persp3d-origin="0.5 : 0.33333333 : 1"
       inkscape:vp_z="1 : 0.5 : 1"
       inkscape:vp_y="0 : 1000 : 0"
       inkscape:vp_x="0 : 0.5 : 1"
       sodipodi:type="inkscape:persp3d" />
    <inkscape:perspective
       id="perspective4365"
       inkscape:persp3d-origin="0.5 : 0.33333333 : 1"
       inkscape:vp_z="1 : 0.5 : 1"
       inkscape:vp_y="0 : 1000 : 0"
       inkscape:vp_x="0 : 0.5 : 1"
       sodipodi:type="inkscape:persp3d" />
    <inkscape:perspective
       id="perspective4387"
       inkscape:persp3d-origin="0.5 : 0.33333333 : 1"
       inkscape:vp_z="1 : 0.5 : 1"
       inkscape:vp_y="0 : 1000 : 0"
       inkscape:vp_x="0 : 0.5 : 1"
       sodipodi:type="inkscape:persp3d" />
    <filter
       inkscape:collect="always"
       id="filter3706"
       color-interpolation-filters="sRGB">
      <feGaussianBlur
         inkscape:collect="always"
         stdDeviation="2.3148126"
         id="feGaussianBlur3708" />
    </filter>
    <inkscape:perspective
       id="perspective3718"
       inkscape:persp3d-origin="0.5 : 0.33333333 : 1"
       inkscape:vp_z="1 : 0.5 : 1"
       inkscape:vp_y="0 : 1000 : 0"
       inkscape:vp_x="0 : 0.5 : 1"
       sodipodi:type="inkscape:persp3d" />
    <clipPath
       clipPathUnits="userSpaceOnUse"
       id="clipPath3740">
      <path
         transform="matrix(0.96193595,0,0,0.94492724,-25.86948,-20.599307)"
         d="m 323.57142,305.93234 a 36.785713,37.447857 0 1 1 -73.57143,0 36.785713,37.447857 0 1 1 73.57143,0 z"
         sodipodi:ry="37.447857"
         sodipodi:rx="36.785713"
         sodipodi:cy="305.93234"
         sodipodi:cx="286.78571"
         id="path3742"
         style="fill:#cccbcb;fill-opacity:1;stroke:none;display:inline"
         sodipodi:type="arc" />
    </clipPath>
  </defs>
  <sodipodi:namedview
     id="base"
     pagecolor="#ffffff"
     bordercolor="#666666"
     borderopacity="1.0"
     inkscape:pageopacity="0.0"
     inkscape:pageshadow="2"
     inkscape:zoom="2.8"
     inkscape:cx="293.32145"
     inkscape:cy="393.32394"
     inkscape:document-units="px"
     inkscape:current-layer="layer1"
     showgrid="false"
     showguides="true"
     inkscape:guide-bbox="true"
     inkscape:window-width="1920"
     inkscape:window-height="1126"
     inkscape:window-x="0"
     inkscape:window-y="25"
     inkscape:window-maximized="1"
     inkscape:snap-global="true"
     inkscape:snap-object-midpoints="true"
     inkscape:snap-grids="true">
    <sodipodi:guide
       orientation="0,1"
       position="500,500"
       id="guide3714" />
    <sodipodi:guide
       orientation="1,0"
       position="400,487.5"
       id="guide3716" />
    <sodipodi:guide
       orientation="1,0"
       position="560,361.42857"
       id="guide3785" />
    <sodipodi:guide
       orientation="1,0"
       position="720,453.05341"
       id="guide3855" />
    <sodipodi:guide
       orientation="0,1"
       position="610.3531,451.22251"
       id="guide4059" />
    <sodipodi:guide
       orientation="0,1"
       position="201.07143,475.61"
       id="guide4061" />
    <sodipodi:guide
       orientation="1,0"
       position="250,451.22251"
       id="guide4063" />
    <sodipodi:guide
       orientation="-0.8660254,0.5"
       position="250,475.61"
       id="guide4069" />
    <sodipodi:guide
       orientation="-0.8660254,-0.5"
       position="250,475.61"
       id="guide4071" />
    <sodipodi:guide
       orientation="0,1"
       position="297.14286,439.28571"
       id="guide4073" />
    <sodipodi:guide
       orientation="0,1"
       position="307.5,431.42857"
       id="guide4075" />
    <sodipodi:guide
       orientation="0,1"
       position="378.92857,515"
       id="guide4105" />
    <sodipodi:guide
       orientation="1,0"
       position="430,504.28571"
       id="guide4107" />
    <sodipodi:guide
       orientation="0,1"
       position="382.5,436.223"
       id="guide4109" />
    <sodipodi:guide
       orientation="0,1"
       position="155,360"
       id="guide2934" />
  </sodipodi:namedview>
  <metadata
     id="metadata7">
    <rdf:RDF>
      <cc:Work
         rdf:about="">
        <dc:format>image/svg+xml</dc:format>
        <dc:type
           rdf:resource="http://purl.org/dc/dcmitype/StillImage" />
        <dc:title />
      </cc:Work>
    </rdf:RDF>
  </metadata>
  <g
     inkscape:groupmode="layer"
     id="layer2"
     inkscape:label="Background"
     sodipodi:insensitive="true">
    <rect
       style="fill:#e4080a;fill-opacity:1;stroke:#000000;stroke-width:0;stroke-linecap:butt;stroke-linejoin:miter;stroke-miterlimit:4;stroke-opacity:0.55652173;stroke-dasharray:none;stroke-dashoffset:0"
       id="rect2816"
       width="874.50671"
       height="211.68498"
       x="23.639481"
       y="198.96628" />
  </g>
  <g
     inkscape:label="Layer 1"
     inkscape:groupmode="layer"
     id="layer1"
     transform="translate(0,-308.2677)"
     style="display:inline"
     sodipodi:insensitive="true">
    <rect
       style="fill:#000607;fill-opacity:1;stroke:#000000;stroke-width:1.45617509;stroke-linecap:butt;stroke-linejoin:miter;stroke-miterlimit:4;stroke-opacity:0.55652173;stroke-dasharray:none;stroke-dashoffset:0"
       id="rect3594-0-0"
       width="3.5742824"
       height="48.778606"
       x="413.21286"
       y="552.37653" />
    <path
       style="fill:#e9e0e0;fill-opacity:1;stroke:none"
       d="m 400,565.58717 0,-25 30,0 0,25 c -10,0.84476 -20,0.66599 -30,0 z"
       id="path3786-0"
       sodipodi:nodetypes="ccccc" />
    <path
       style="fill:#f0f0f0;fill-opacity:1;stroke:none"
       d="m 400,544.08161 c 10,-1.49444 20,-1.49444 30,0 l 0,-5.05077 c -10,-1.44367 -20,-1.44367 -30,0 l 0,5.05077 z"
       id="path3792-0"
       sodipodi:nodetypes="ccccc" />
    <rect
       style="fill:#000607;fill-opacity:1;stroke:#000000;stroke-width:1.45617509;stroke-linecap:butt;stroke-linejoin:miter;stroke-miterlimit:4;stroke-opacity:0.55652173;stroke-dasharray:none;stroke-dashoffset:0"
       id="rect3594-0-8-3"
       width="3.5742824"
       height="48.778606"
       x="453.21286"
       y="552.36218" />
    <path
       style="fill:#d9d0d0;fill-opacity:1;stroke:none"
       d="m 440,574.17645 c 10.09628,0.9628 20.07128,0.71283 30,0 l 0,-13.30328 -30,0 0,13.30328 z"
       id="path3808-3"
       sodipodi:nodetypes="ccccc" />
    <path
       style="fill:#f0f0f0;fill-opacity:1;stroke:none"
       d="m 440,565.64967 c 10,-1.2145 20,-1.2145 30,0 l 0,-6.5625 c -10,-1.145 -20,-1.145 -30,0 l 0,6.5625 z"
       id="path3810-5"
       sodipodi:nodetypes="ccccc" />
    <rect
       style="fill:#000607;fill-opacity:1;stroke:#000000;stroke-width:1.45617509;stroke-linecap:butt;stroke-linejoin:miter;stroke-miterlimit:4;stroke-opacity:0.55652173;stroke-dasharray:none;stroke-dashoffset:0"
       id="rect3594-0-8-4-1"
       width="3.5742824"
       height="48.778606"
       x="493.21283"
       y="-601.14081"
       transform="scale(1,-1)" />
    <path
       style="fill:#c4c0c0;fill-opacity:1;stroke:none"
       d="m 480,579.32649 c 10.08241,-0.74168 20.08593,-0.77341 30,0 l 0,13.30328 -30,0 0,-13.30328 z"
       id="path3808-9-0"
       sodipodi:nodetypes="ccccc" />
    <path
       style="fill:#f0f0f0;fill-opacity:1;stroke:none"
       d="m 480,587.85327 c 10,1.2145 20,1.2145 30,0 l 0,6.5625 c -10,1.145 -20,1.145 -30,0 l 0,-6.5625 z"
       id="path3810-7-0"
       sodipodi:nodetypes="ccccc" />
    <rect
       style="fill:#000607;fill-opacity:1;stroke:#000000;stroke-width:1.45617509;stroke-linecap:butt;stroke-linejoin:miter;stroke-miterlimit:4;stroke-opacity:0.55652173;stroke-dasharray:none;stroke-dashoffset:0"
       id="rect3594-0-1-9"
       width="3.5742824"
       height="48.778606"
       x="533.21429"
       y="-601.19183"
       transform="scale(1,-1)" />
    <path
       style="fill:#c4c0c0;fill-opacity:1;stroke:none"
       d="m 520,587.98106 10e-4,25 30,0 0,-25 c -10.08522,-1.1931 -20.08456,-1.16385 -30.00143,0 z"
       id="path3786-4-5"
       sodipodi:nodetypes="ccccc" />
    <path
       style="fill:#f0f0f0;fill-opacity:1;stroke:none"
       d="m 520.00143,609.48662 c 10,1.49444 20,1.49444 30,0 l 0,5.05077 c -10,1.44367 -20,1.44367 -30,0 l 0,-5.05077 z"
       id="path3792-9-9"
       sodipodi:nodetypes="ccccc" />
    <path
       style="fill:none;stroke:#ffffff;stroke-width:1px;stroke-linecap:round;stroke-linejoin:miter;stroke-opacity:1"
       d="m 401.25,543.0336 c 9.22072,-1.04679 18.21971,-1.09583 26.96429,0"
       id="path3918-8"
       sodipodi:nodetypes="cc" />
    <path
       style="fill:none;stroke:#ffffff;stroke-width:1px;stroke-linecap:round;stroke-linejoin:miter;stroke-opacity:1"
       d="m 441.20256,564.74738 c 9.30194,-1.29045 18.30681,-1.35712 26.96429,0"
       id="path3918-5-2"
       sodipodi:nodetypes="cc" />
    <path
       style="fill:none;stroke:#ffffff;stroke-width:1.89999998;stroke-linecap:round;stroke-linejoin:miter;stroke-miterlimit:4;stroke-opacity:1;stroke-dasharray:none"
       d="m 481.48404,592.55402 c 9.30194,1.29045 18.30681,1.35712 26.96429,0"
       id="path3918-5-0-0"
       sodipodi:nodetypes="cc" />
    <path
       style="fill:none;stroke:#ffffff;stroke-width:1.89999998;stroke-linecap:round;stroke-linejoin:miter;stroke-miterlimit:4;stroke-opacity:1;stroke-dasharray:none"
       d="m 521.51929,612.15159 c 9.22071,1.04679 18.21971,1.09583 26.96429,0"
       id="path3918-2-8"
       sodipodi:nodetypes="cc" />
    <rect
       style="fill:#000607;fill-opacity:1;stroke:#000000;stroke-width:1.45617509;stroke-linecap:butt;stroke-linejoin:miter;stroke-miterlimit:4;stroke-opacity:0.55652173;stroke-dasharray:none;stroke-dashoffset:0"
       id="rect3594-0-0-4"
       width="3.5742824"
       height="48.778606"
       x="573.21283"
       y="552.36218" />
    <path
       style="fill:#333333;fill-opacity:1;stroke:none"
       d="m 560,565.57277 0,-25 30,0 0,25 c -10,0.84476 -20,0.66599 -30,0 z"
       id="path3786-0-4"
       sodipodi:nodetypes="ccccc" />
    <path
       style="fill:#111111;fill-opacity:1;stroke:none"
       d="m 560,544.06721 c 10,-1.49444 20,-1.49444 30,0 l 0,-5.05077 c -10,-1.44367 -20,-1.44367 -30,0 l 0,5.05077 z"
       id="path3792-0-1"
       sodipodi:nodetypes="ccccc" />
    <rect
       style="fill:#000607;fill-opacity:1;stroke:#000000;stroke-width:1.45617509;stroke-linecap:butt;stroke-linejoin:miter;stroke-miterlimit:4;stroke-opacity:0.55652173;stroke-dasharray:none;stroke-dashoffset:0"
       id="rect3594-0-8-3-6"
       width="3.5742824"
       height="48.778606"
       x="613.21283"
       y="552.34784" />
    <path
       style="fill:#222222;fill-opacity:1;stroke:none"
       d="m 600,574.16205 c 10.09628,0.9628 20.07128,0.71283 30,0 l 0,-13.30328 -30,0 0,13.30328 z"
       id="path3808-3-4"
       sodipodi:nodetypes="ccccc" />
    <path
       style="fill:#111111;fill-opacity:1;stroke:none"
       d="m 600,565.63527 c 10,-1.2145 20,-1.2145 30,0 l 0,-6.5625 c -10,-1.145 -20,-1.145 -30,0 l 0,6.5625 z"
       id="path3810-5-1"
       sodipodi:nodetypes="ccccc" />
    <rect
       style="fill:#000607;fill-opacity:1;stroke:#000000;stroke-width:1.45617509;stroke-linecap:butt;stroke-linejoin:miter;stroke-miterlimit:4;stroke-opacity:0.55652173;stroke-dasharray:none;stroke-dashoffset:0"
       id="rect3594-0-8-4-1-0"
       width="3.5742824"
       height="48.778606"
       x="653.21283"
       y="-601.12646"
       transform="scale(1,-1)" />
    <path
       style="fill:#222222;fill-opacity:1;stroke:none"
       d="m 640,579.31209 c 10.08241,-0.74168 20.08593,-0.77341 30,0 l 0,13.30328 -30,0 0,-13.30328 z"
       id="path3808-9-0-3"
       sodipodi:nodetypes="ccccc" />
    <path
       style="fill:#111111;fill-opacity:1;stroke:none"
       d="m 640,587.83887 c 10,1.2145 20,1.2145 30,0 l 0,6.5625 c -10,1.145 -20,1.145 -30,0 l 0,-6.5625 z"
       id="path3810-7-0-3"
       sodipodi:nodetypes="ccccc" />
    <rect
       style="fill:#000607;fill-opacity:1;stroke:#000000;stroke-width:1.45617509;stroke-linecap:butt;stroke-linejoin:miter;stroke-miterlimit:4;stroke-opacity:0.55652173;stroke-dasharray:none;stroke-dashoffset:0"
       id="rect3594-0-1-9-1"
       width="3.5742824"
       height="48.778606"
       x="693.21429"
       y="-601.17749"
       transform="scale(1,-1)" />
    <path
       style="fill:#222222;fill-opacity:1;stroke:none"
       d="m 680,587.96666 10e-4,25 30,0 0,-25 c -10.08522,-1.1931 -20.08456,-1.16385 -30.00143,0 z"
       id="path3786-4-5-5"
       sodipodi:nodetypes="ccccc" />
    <path
       style="fill:#111111;fill-opacity:1;stroke:none"
       d="m 680.00143,609.47222 c 10,1.49444 20,1.49444 30,0 l 0,5.05077 c -10,1.44367 -20,1.44367 -30,0 l 0,-5.05077 z"
       id="path3792-9-9-7"
       sodipodi:nodetypes="ccccc" />
    <path
       style="fill:none;stroke:#888888;stroke-width:1px;stroke-linecap:round;stroke-linejoin:miter;stroke-opacity:0.69019608"
       d="m 561.25,543.0192 c 9.22072,-1.04679 18.21971,-1.09583 26.96429,0"
       id="path3918-8-4"
       sodipodi:nodetypes="cc" />
    <path
       style="fill:none;stroke:#888888;stroke-width:1px;stroke-linecap:round;stroke-linejoin:miter;stroke-opacity:0.69019608"
       d="m 601.20256,564.73298 c 9.30194,-1.29045 18.30681,-1.35712 26.96429,0"
       id="path3918-5-2-8"
       sodipodi:nodetypes="cc" />
    <path
       style="fill:none;stroke:#888888;stroke-width:1.89999998;stroke-linecap:round;stroke-linejoin:miter;stroke-miterlimit:4;stroke-opacity:0.63529412;stroke-dasharray:none"
       d="m 641.48404,592.53962 c 9.30194,1.29045 18.30681,1.35712 26.96429,0"
       id="path3918-5-0-0-6"
       sodipodi:nodetypes="cc" />
    <path
       style="fill:none;stroke:#888888;stroke-width:1.89999998;stroke-linecap:round;stroke-linejoin:miter;stroke-miterlimit:4;stroke-opacity:0.63478262;stroke-dasharray:none"
       d="m 681.51929,612.13719 c 9.22071,1.04679 18.21971,1.09583 26.96429,0"
       id="path3918-2-8-5"
       sodipodi:nodetypes="cc" />
    <rect
       style="fill:#000607;fill-opacity:1;stroke:#000000;stroke-width:1.45617509;stroke-linecap:butt;stroke-linejoin:miter;stroke-miterlimit:4;stroke-opacity:0.55652173;stroke-dasharray:none;stroke-dashoffset:0"
       id="rect3594-0-0-4-0"
       width="3.5742824"
       height="48.778606"
       x="733.21283"
       y="552.37653" />
    <path
       style="fill:#33ab33;fill-opacity:1;stroke:none"
       d="m 720,565.58712 0,-25 30,0 0,25 c -10,0.84476 -20,0.66599 -30,0 z"
       id="path3786-0-4-7"
       sodipodi:nodetypes="ccccc" />
    <path
       style="fill:#43da45;fill-opacity:1;stroke:none"
       d="m 720,544.08156 c 10,-1.49444 20,-1.49444 30,0 l 0,-5.05077 c -10,-1.44367 -20,-1.44367 -30,0 l 0,5.05077 z"
       id="path3792-0-1-1"
       sodipodi:nodetypes="ccccc" />
    <rect
       style="fill:#000607;fill-opacity:1;stroke:#000000;stroke-width:1.45617509;stroke-linecap:butt;stroke-linejoin:miter;stroke-miterlimit:4;stroke-opacity:0.55652173;stroke-dasharray:none;stroke-dashoffset:0"
       id="rect3594-0-8-3-6-5"
       width="3.5742824"
       height="48.778606"
       x="773.21283"
       y="552.36218" />
    <path
       style="fill:#229522;fill-opacity:1;stroke:none"
       d="m 760,574.1764 c 10.09628,0.9628 20.07128,0.71283 30,0 l 0,-13.30328 -30,0 0,13.30328 z"
       id="path3808-3-4-0"
       sodipodi:nodetypes="ccccc" />
    <path
       style="fill:#43da45;fill-opacity:1;stroke:none"
       d="m 760,565.64962 c 10,-1.2145 20,-1.2145 30,0 l 0,-6.5625 c -10,-1.145 -20,-1.145 -30,0 l 0,6.5625 z"
       id="path3810-5-1-8"
       sodipodi:nodetypes="ccccc" />
    <rect
       style="fill:#000607;fill-opacity:1;stroke:#000000;stroke-width:1.45617509;stroke-linecap:butt;stroke-linejoin:miter;stroke-miterlimit:4;stroke-opacity:0.55652173;stroke-dasharray:none;stroke-dashoffset:0"
       id="rect3594-0-8-4-1-0-2"
       width="3.5742824"
       height="48.778606"
       x="813.21283"
       y="-601.14081"
       transform="scale(1,-1)" />
    <path
       style="fill:#229022;fill-opacity:1;stroke:none"
       d="m 800,579.32644 c 10.08241,-0.74168 20.08593,-0.77341 30,0 l 0,13.30328 -30,0 0,-13.30328 z"
       id="path3808-9-0-3-9"
       sodipodi:nodetypes="ccccc" />
    <path
       style="fill:#43da45;fill-opacity:1;stroke:none"
       d="m 800,587.85322 c 10,1.2145 20,1.2145 30,0 l 0,6.5625 c -10,1.145 -20,1.145 -30,0 l 0,-6.5625 z"
       id="path3810-7-0-3-8"
       sodipodi:nodetypes="ccccc" />
    <rect
       style="fill:#000607;fill-opacity:1;stroke:#000000;stroke-width:1.45617509;stroke-linecap:butt;stroke-linejoin:miter;stroke-miterlimit:4;stroke-opacity:0.55652173;stroke-dasharray:none;stroke-dashoffset:0"
       id="rect3594-0-1-9-1-2"
       width="3.5742824"
       height="48.778606"
       x="853.21429"
       y="-601.19183"
       transform="scale(1,-1)" />
    <path
       style="fill:#1a801a;fill-opacity:1;stroke:none"
       d="m 840,587.98101 10e-4,25 30,0 0,-25 c -10.08522,-1.1931 -20.08456,-1.16385 -30.00143,0 z"
       id="path3786-4-5-5-4"
       sodipodi:nodetypes="ccccc" />
    <path
       style="fill:#43da45;fill-opacity:1;stroke:none"
       d="m 840.00143,609.48657 c 10,1.49444 20,1.49444 30,0 l 0,5.05077 c -10,1.44367 -20,1.44367 -30,0 l 0,-5.05077 z"
       id="path3792-9-9-7-5"
       sodipodi:nodetypes="ccccc" />
    <path
       style="fill:none;stroke:#ffffff;stroke-width:1px;stroke-linecap:round;stroke-linejoin:miter;stroke-opacity:0.43921569"
       d="m 721.25,543.03355 c 9.22072,-1.04679 18.21971,-1.09583 26.96429,0"
       id="path3918-8-4-8"
       sodipodi:nodetypes="cc" />
    <path
       style="fill:none;stroke:#ffffff;stroke-width:1px;stroke-linecap:round;stroke-linejoin:miter;stroke-opacity:0.43921569"
       d="m 761.20256,564.74733 c 9.30194,-1.29045 18.30681,-1.35712 26.96429,0"
       id="path3918-5-2-8-6"
       sodipodi:nodetypes="cc" />
    <path
       style="fill:none;stroke:#ffffff;stroke-width:1.89999998;stroke-linecap:round;stroke-linejoin:miter;stroke-miterlimit:4;stroke-opacity:0.43921569;stroke-dasharray:none"
       d="m 801.48404,592.55397 c 9.30194,1.29045 18.30681,1.35712 26.96429,0"
       id="path3918-5-0-0-6-9"
       sodipodi:nodetypes="cc" />
    <path
       style="fill:none;stroke:#ffffff;stroke-width:1.89999998;stroke-linecap:round;stroke-linejoin:miter;stroke-miterlimit:4;stroke-opacity:0.43921569;stroke-dasharray:none"
       d="m 841.51929,612.15154 c 9.22071,1.04679 18.21971,1.09583 26.96429,0"
       id="path3918-2-8-5-7"
       sodipodi:nodetypes="cc" />
    <path
       sodipodi:type="arc"
       style="fill:#cccbcb;fill-opacity:1;stroke:#001210;stroke-width:2.79999995;stroke-linecap:round;stroke-linejoin:round;stroke-miterlimit:4;stroke-opacity:0.96956524;stroke-dasharray:none;stroke-dashoffset:0"
       id="path4065"
       sodipodi:cx="286.78571"
       sodipodi:cy="305.93234"
       sodipodi:rx="36.785713"
       sodipodi:ry="37.447857"
       d="m 323.57142,305.93234 a 36.785713,37.447857 0 1 1 -73.57143,0 36.785713,37.447857 0 1 1 73.57143,0 z"
       transform="matrix(0.90339501,0,0,0.88741625,-12.956744,301.20376)" />
    <path
       sodipodi:type="spiral"
       style="fill:none;stroke:#000000;stroke-width:0.89999998;stroke-linecap:butt;stroke-linejoin:miter;stroke-miterlimit:4;stroke-opacity:0.24782607;stroke-dasharray:none"
       id="path4067"
       sodipodi:cx="250"
       sodipodi:cy="268.4845"
       sodipodi:expansion="1"
       sodipodi:revolution="20"
       sodipodi:radius="36.48951"
       sodipodi:argument="-18.117579"
       sodipodi:t0="0"
       d="m 250,268.4845 c 0.20414,0.18341 -0.14652,0.36566 -0.30484,0.33928 -0.42904,-0.0715 -0.52624,-0.61092 -0.37373,-0.94897 0.2728,-0.60469 1.05924,-0.71588 1.5931,-0.40817 0.78346,0.45157 0.91074,1.51351 0.44261,2.23723 -0.62394,0.96461 -1.96986,1.10781 -2.88136,0.47706 -1.14702,-0.79374 -1.30601,-2.42721 -0.5115,-3.52549 0.96227,-1.33017 2.88511,-1.50488 4.16962,-0.54594 1.51375,1.13007 1.70415,3.34336 0.58039,4.81374 -1.29743,1.69762 -3.80184,1.9037 -5.45788,0.61483 -1.88169,-1.46449 -2.10343,-4.26049 -0.64927,-6.10201 1.63135,-2.0659 4.71925,-2.30331 6.74614,-0.68371 2.25022,1.79807 2.50329,5.17811 0.71815,7.39027 -1.96466,2.43462 -5.63703,2.70336 -8.03439,0.75259 -2.61909,-2.13118 -2.90349,-6.096 -0.78704,-8.67852 2.29763,-2.8036 6.55502,-3.10367 9.32265,-0.82148 2.98815,2.46403 3.30389,7.01408 0.85593,9.96678 -2.63039,3.17274 -7.47317,3.50414 -10.61092,0.89037 -3.35735,-2.7967 -3.70441,-7.93228 -0.92481,-11.25504 2.96299,-3.54199 8.39141,-3.90472 11.89917,-0.95926 3.72664,3.12926 4.10505,8.85056 0.9937,12.5433 -3.2955,3.91131 -9.30972,4.30539 -13.18743,1.02814 -4.09599,-3.46172 -4.50574,-9.7689 -1.06258,-13.83156 3.62794,-4.28068 10.22808,-4.7061 14.47569,-1.09702 4.46539,3.79413 4.90648,10.68728 1.13146,15.11982 -3.96032,4.65011 -11.14649,5.10687 -15.76394,1.16591 -4.83484,-4.1265 -5.30727,-11.60571 -1.20036,-16.40808 4.29267,-5.01957 12.06493,-5.50767 17.05221,-1.23479 5.2043,4.45882 5.70809,12.52415 1.26924,17.69633 -4.62497,5.38905 -12.98339,5.90851 -18.34047,1.30368 -5.57379,-4.79112 -6.10892,-13.44263 -1.33812,-18.98459 4.95725,-5.75855 13.90187,-6.30936 19.62872,-1.37257 5.94331,5.12339 6.50979,14.36112 1.40701,20.27285 -5.28952,6.12807 -14.82037,6.71023 -20.91698,1.44145 -6.31284,-5.45564 -6.91067,-15.27962 -1.47589,-21.56111 5.62176,-6.4976 15.73888,-7.11111 22.20524,-1.51033 6.68237,5.78788 7.31156,16.19814 1.54477,22.84937 -5.95399,6.86715 -16.6574,7.51201 -23.49349,1.57922 -7.05193,-6.1201 -7.71247,-17.11667 -1.61367,-24.13763 6.28621,-7.2367 17.57594,-7.91292 24.78176,-1.64811 7.42149,6.45232 8.11338,18.03521 1.68255,25.42589 -6.61842,7.60627 -18.49448,8.31384 -26.07002,1.71699 -7.79105,-6.78452 -8.5143,-18.95375 -1.75143,-26.71414 6.95062,-7.97584 19.41303,-8.71477 27.35827,-1.78588 8.16063,7.11671 8.91523,19.8723 1.82032,28.0024 -7.28281,8.34542 -20.33158,9.1157 -28.64653,1.85477 -8.53021,-7.44891 -9.31616,-20.79086 -1.8892,-29.29067 7.61499,-8.715 21.25014,-9.51663 29.93479,-1.92364 8.89979,7.78108 9.7171,21.70942 1.95809,30.57892 -7.94718,9.08458 -22.16871,9.91757 -31.22305,1.99253 -9.26939,-8.11326 -10.11805,-22.62799 -2.02698,-31.86718 8.27935,-9.45418 23.08728,-10.31852 32.51131,-2.06142 9.63898,8.44544 10.519,23.54656 2.09586,33.15544 -8.61152,9.82377 -24.00585,10.71948 -33.79957,2.1303 -10.00857,-8.7776 -10.91995,-24.46513 -2.16474,-34.44369 8.94368,-10.19338 24.92442,-11.12044 35.08782,-2.19919 10.37818,9.10976 11.32091,25.38371 2.23363,35.73195 -9.27584,10.56298 -25.843,11.5214 -36.37608,2.26808 -10.74778,-9.44193 -11.72187,-26.30229 -2.30252,-37.02022 9.60801,-10.93257 26.76159,-11.92235 37.66435,-2.33696 11.11738,9.77409 12.12283,27.22088 2.3714,38.30848 -9.94016,11.30218 -27.68017,12.32331 -38.9526,2.40584 -11.48699,-10.10624 -12.5238,-28.13946 -2.44029,-39.59673 10.27231,-11.67179 28.59875,-12.72428 40.24086,-2.47473 11.8566,10.43839 12.92477,29.05805 2.50917,40.88499 -10.60446,12.0414 -29.51734,13.12525 -41.52912,2.54361 -12.22621,-10.77054 -13.32573,-29.97663 -2.57805,-42.17324 10.93661,-12.41102 30.43593,-13.52623 42.81737,-2.6125 12.59583,11.10269 13.72671,30.89522 2.64695,43.4615 -11.26877,12.78063 -31.35453,13.9272 -44.10564,2.68139 -12.96544,-11.43484 -14.12768,-31.81382 -2.71583,-44.74977 11.60091,-13.15024 32.27312,-14.32817 45.3939,-2.75027 13.33505,11.76698 14.52866,32.73242 2.78471,46.03803 -11.93305,13.51986 -33.19171,14.72914 -46.68215,2.81915 -13.70468,-12.09912 -14.92964,-33.651 -2.8536,-47.32628 12.26519,-13.88948 34.1103,-15.13012 47.97041,-2.88804 14.07429,12.43126 15.33061,34.5696 2.92248,48.61454 -12.59733,14.2591 -35.0289,15.5311 -49.25867,2.95693 -14.44391,-12.76341 -15.73159,-35.4882 -2.99137,-49.9028 12.92948,-14.62872 35.94751,-15.93208 50.54693,-3.02581 14.81353,13.09554 16.13257,36.4068 3.06026,51.19105"
       transform="matrix(0.90310078,0,0,0.90310078,20.348836,330.22453)"
       clip-path="none" />
    <path
       style="fill:none;stroke:#c3c3c5;stroke-width:1.89651155;stroke-linecap:round;stroke-linejoin:miter;stroke-miterlimit:4;stroke-opacity:1;stroke-dasharray:none"
       d="m 223.08759,612.59336 4.09676,-7.09579"
       id="path4077" />
    <path
       style="fill:none;stroke:#c3c3c5;stroke-width:1.89651155;stroke-linecap:round;stroke-linejoin:miter;stroke-miterlimit:4;stroke-opacity:1;stroke-dasharray:none"
       d="m 269.16047,612.59336 -4.09675,-7.09579"
       id="path4079" />
    <path
       style="opacity:0.8125;fill:#ffffff;fill-opacity:1;stroke:none;display:inline;filter:url(#filter3706)"
       d="m 216.07143,253.91591 68.03571,28.75 c -3.93467,9.36572 -10.23468,15.80954 -18.21428,20.17857 l -30.71429,-68.39286 c -9.66313,4.74353 -14.61235,10.11192 -19.10714,19.46429 z"
       id="path3695"
       sodipodi:nodetypes="ccccc"
       clip-path="url(#clipPath3740)"
       transform="matrix(0.90310078,0,0,0.90310078,20.348836,330.22453)" />
    <text
       xml:space="preserve"
       style="font-size:16px;font-style:normal;font-variant:normal;font-weight:bold;font-stretch:normal;fill:#c3c3c5;fill-opacity:1;stroke:none;display:inline;font-family:Impact;-inkscape-font-specification:Impact Bold"
       x="75.714287"
       y="384.09448"
       id="text2926"
       transform="translate(0,308.2677)"><tspan
         sodipodi:role="line"
         id="tspan2928"
         x="75.714287"
         y="384.09448">PITCH</tspan></text>
    <text
       xml:space="preserve"
       style="font-size:16px;font-style:normal;font-variant:normal;font-weight:bold;font-stretch:normal;fill:#c3c3c5;fill-opacity:1;stroke:none;display:inline;font-family:Impact;-inkscape-font-specification:Impact Bold"
       x="132.14284"
       y="384.09448"
       id="text2930"
       transform="translate(0,308.2677)"><tspan
         sodipodi:role="line"
         id="tspan2932"
         x="132.14284"
         y="384.09448">VOLUME</tspan></text>
  </g>
  <g
     inkscape:groupmode="layer"
     id="layer3"
     inkscape:label="export">
    <rect
       style="fill:none;stroke:none"
       id="white_0"
       width="40"
       height="85"
       x="395"
       y="226.59448"
       inkscape:label="#rect4111" />
    <rect
       style="fill:none;stroke:none"
       id="white_1"
       width="40"
       height="85"
       x="435"
       y="226.59448"
       inkscape:label="#rect4111" />
    <rect
       style="fill:none;stroke:none"
       id="white_2"
       width="40"
       height="85"
       x="475"
       y="226.59448"
       inkscape:label="#rect4111" />
    <rect
       style="fill:none;stroke:none"
       id="white_3"
       width="40"
       height="85"
       x="515"
       y="226.59448"
       inkscape:label="#rect4111" />
    <rect
       style="fill:none;stroke:none"
       id="black_0"
       width="40"
       height="85"
       x="555"
       y="226.59448"
       inkscape:label="#rect4111" />
    <rect
       style="fill:none;stroke:none"
       id="black_1"
       width="40"
       height="85"
       x="595"
       y="226.59448"
       inkscape:label="#rect4111" />
    <rect
       style="fill:none;stroke:none"
       id="black_2"
       width="40"
       height="85"
       x="635"
       y="226.59448"
       inkscape:label="#rect4111" />
    <rect
       style="fill:none;stroke:none"
       id="black_3"
       width="40"
       height="85"
       x="675"
       y="226.59448"
       inkscape:label="#rect4111" />
    <rect
       style="fill:none;stroke:none"
       id="green_0"
       width="40"
       height="85"
       x="715"
       y="226.59448"
       inkscape:label="#rect4111" />
    <rect
       style="fill:none;stroke:none"
       id="green_1"
       width="40"
       height="85"
       x="755"
       y="226.59448"
       inkscape:label="#rect4111" />
    <rect
       style="fill:none;stroke:none"
       id="green_2"
       width="40"
       height="85"
       x="795"
       y="226.59448"
       inkscape:label="#rect4111" />
    <rect
       style="fill:none;stroke:none"
       id="green_3"
       width="40"
       height="85"
       x="835"
       y="226.59448"
       inkscape:label="#rect4111" />
    <rect
       style="fill:none;stroke:none"
       id="potentiometer"
       width="72.248062"
       height="83.214287"
       x="210"
       y="226.59448"
       inkscape:label="#rect4111" />
  </g>
</svg>
